# xmcd
#
# Track frame offsets:
#	150
#	24537
#	41640
#	62180
#	77127
#	96725
#	112382
#	123682
#	139897
#	162395
#	177080
#	193050
#	209450
#	223235
#	231815
#	249742
#	272147
#	293290
#	309040
#	330232
#
# Disc length: 4580 seconds
#
# Revision: 3
# Processed by: cddbd v1.5.2PL0 Copyright (c) Steve Scherf et al.
# Submitted via: EZCDAudioConverter 7.0.8.1
#
DISCID=3511e214
DTITLE=Pepe Ahlqvist - Kaikessa soi Blues 20 suosikkia
DYEAR=1900
DGENRE=blues
TTITLE0=Kaikessa soi Blues
TTITLE1=Good old music
TTITLE2=Don't leave me again
TTITLE3=Back to the river
TTITLE4=Ain't doing to bad
TTITLE5=Eeny meeny miny mo
TTITLE6=Funky rhythm
TTITLE7=My girl
TTITLE8=Nobody's fool
TTITLE9=Big chief
TTITLE10=Mercedes Benz
TTITLE11=Santa Claus has chinese eyes
TTITLE12=Good act
TTITLE13=Don't let that music die
TTITLE14=Honey hush!
TTITLE15=No more affection
TTITLE16=Bubble struggle
TTITLE17=T's and B's (they drive me nuts)
TTITLE18=Heal me with the blues
TTITLE19=Ain't that lovin' you
EXTD=
EXTT0=
EXTT1=
EXTT2=
EXTT3=
EXTT4=
EXTT5=
EXTT6=
EXTT7=
EXTT8=
EXTT9=
EXTT10=
EXTT11=
EXTT12=
EXTT13=
EXTT14=
EXTT15=
EXTT16=
EXTT17=
EXTT18=
EXTT19=
PLAYORDER=
